<svg width="50" height="19" viewBox="0 0 50 19" fill="none" xmlns="http://www.w3.org/2000/svg">
<path d="M48.718 10.028H1.02564C0.458333 10.028 0 9.56971 0 9.0024C0 8.4351 0.458333 7.97676 1.02564 7.97676H46.2404L40.016 1.7524C39.6154 1.35176 39.6154 0.701122 40.016 0.300481C40.4167 -0.10016 41.0673 -0.10016 41.468 0.300481L49.4455 8.27804C49.7404 8.57292 49.8269 9.01202 49.6667 9.39663C49.5064 9.77804 49.1314 10.028 48.718 10.028Z" fill="#161616"/>
<path d="M40.7308 18.0152C40.468 18.0152 40.2051 17.9159 40.0064 17.7139C39.6058 17.3133 39.6058 16.6627 40.0064 16.262L47.9936 8.27485C48.3942 7.8742 49.0449 7.8742 49.4455 8.27485C49.8462 8.67549 49.8462 9.32613 49.4455 9.72677L41.4583 17.7139C41.2564 17.9159 40.9936 18.0152 40.7308 18.0152Z" fill="#161616"/>
</svg>
