<svg width="34" height="36" viewBox="0 0 34 36" fill="none" xmlns="http://www.w3.org/2000/svg">
<path d="M4.02555 23.0872C3.69425 23.0872 3.37039 23.1855 3.09492 23.3695C2.81945 23.5536 2.60475 23.8152 2.47797 24.1213C2.35119 24.4274 2.31801 24.7642 2.38265 25.0891C2.44728 25.414 2.60682 25.7125 2.84108 25.9468C3.07535 26.181 3.37382 26.3406 3.69876 26.4052C4.02369 26.4699 4.3605 26.4367 4.66658 26.3099C4.97267 26.1831 5.23428 25.9684 5.41834 25.6929C5.6024 25.4175 5.70064 25.0936 5.70064 24.7623C5.70015 24.3182 5.5235 23.8924 5.20947 23.5784C4.89544 23.2644 4.46966 23.0877 4.02555 23.0872ZM4.02555 25.3207C3.91512 25.3207 3.80716 25.2879 3.71534 25.2266C3.62352 25.1652 3.55195 25.078 3.50969 24.976C3.46743 24.874 3.45637 24.7617 3.47792 24.6534C3.49946 24.5451 3.55264 24.4456 3.63073 24.3675C3.70882 24.2894 3.80831 24.2362 3.91662 24.2147C4.02493 24.1931 4.1372 24.2042 4.23923 24.2465C4.34126 24.2887 4.42846 24.3603 4.48982 24.4521C4.55117 24.5439 4.58392 24.6519 4.58392 24.7623C4.58375 24.9103 4.52487 25.0523 4.42019 25.157C4.31551 25.2616 4.17359 25.3205 4.02555 25.3207ZM25.2434 23.0872C24.9121 23.0872 24.5882 23.1855 24.3128 23.3695C24.0373 23.5536 23.8226 23.8152 23.6958 24.1213C23.569 24.4274 23.5358 24.7642 23.6005 25.0891C23.6651 25.414 23.8246 25.7125 24.0589 25.9468C24.2932 26.181 24.5917 26.3406 24.9166 26.4052C25.2415 26.4699 25.5783 26.4367 25.8844 26.3099C26.1905 26.1831 26.4521 25.9684 26.6362 25.6929C26.8202 25.4175 26.9185 25.0936 26.9185 24.7623C26.918 24.3182 26.7413 23.8924 26.4273 23.5784C26.1133 23.2644 25.6875 23.0877 25.2434 23.0872ZM25.2434 25.3207C25.1329 25.3207 25.025 25.2879 24.9332 25.2266C24.8414 25.1652 24.7698 25.078 24.7275 24.976C24.6853 24.874 24.6742 24.7617 24.6957 24.6534C24.7173 24.5451 24.7705 24.4456 24.8486 24.3675C24.9266 24.2894 25.0261 24.2362 25.1345 24.2147C25.2428 24.1931 25.355 24.2042 25.4571 24.2465C25.5591 24.2887 25.6463 24.3603 25.7076 24.4521C25.769 24.5439 25.8017 24.6519 25.8017 24.7623C25.8016 24.9103 25.7427 25.0523 25.638 25.157C25.5333 25.2616 25.3914 25.3205 25.2434 25.3207Z" fill="white"/>
<path d="M29.1519 24.7623C29.1519 24.2434 29.0486 23.7297 28.848 23.2512C28.6474 22.7727 28.3535 22.3389 27.9835 21.9751C27.6135 21.6113 27.1747 21.3249 26.6928 21.1325C26.211 20.94 25.6956 20.8455 25.1768 20.8543C23.0583 20.8897 21.3348 22.6675 21.3348 24.8175V26.6932C19.8052 26.2769 17.5744 25.879 14.6344 25.879C11.6945 25.879 9.46365 26.2769 7.93408 26.6932V24.7623C7.93408 24.2363 7.82789 23.7156 7.62188 23.2316C7.41586 22.7476 7.11425 22.3101 6.73512 21.9454C6.356 21.5807 5.90715 21.2963 5.41549 21.1092C4.92382 20.9222 4.39945 20.8363 3.8738 20.8567C2.89148 20.8981 1.96053 21.3069 1.26532 22.0021C0.570097 22.6973 0.161312 23.6283 0.119918 24.6106C0.0826508 25.5759 0.404008 26.5209 1.02206 27.2633C1.6401 28.0058 2.51109 28.4932 3.46717 28.6317V30.9043C3.46784 31.4965 3.70336 32.0642 4.12207 32.4829C4.54078 32.9016 5.10848 33.1371 5.70063 33.1378V34.8129C5.70063 34.961 5.75945 35.103 5.86417 35.2077C5.96888 35.3124 6.1109 35.3712 6.25899 35.3712H7.93408C8.03777 35.3712 8.13941 35.3423 8.22761 35.2878C8.31581 35.2333 8.38709 35.1553 8.43347 35.0626L9.39588 33.1378H19.873L20.8354 35.0626C20.8818 35.1553 20.9531 35.2333 21.0413 35.2878C21.1295 35.3423 21.2311 35.3712 21.3348 35.3712H23.0099C23.158 35.3712 23.3 35.3124 23.4047 35.2077C23.5094 35.103 23.5683 34.961 23.5683 34.8129V33.1378C24.1604 33.1371 24.7281 32.9016 25.1468 32.4829C25.5655 32.0642 25.8011 31.4965 25.8017 30.9043V28.6311C26.7315 28.4956 27.5815 28.0303 28.1966 27.32C28.8117 26.6097 29.1507 25.7019 29.1519 24.7623ZM7.58901 34.2545H6.81735V33.1378H8.14738L7.58901 34.2545ZM22.4515 34.2545H21.6799L21.1215 33.1378H22.4515V34.2545ZM25.2434 27.5541C25.0953 27.5541 24.9533 27.613 24.8485 27.7177C24.7438 27.8224 24.685 27.9644 24.685 28.1125V30.9043C24.6846 31.2004 24.5669 31.4842 24.3575 31.6936C24.1482 31.9029 23.8643 32.0207 23.5683 32.021H5.70063C5.40456 32.0207 5.12072 31.9029 4.91137 31.6936C4.70202 31.4842 4.58425 31.2004 4.5839 30.9043V28.1125C4.5839 27.9644 4.52507 27.8224 4.42036 27.7177C4.31564 27.613 4.17362 27.5541 4.02553 27.5541C3.6497 27.5541 3.27774 27.4783 2.93194 27.331C2.58614 27.1838 2.27362 26.9683 2.01312 26.6974C1.75261 26.4265 1.54949 26.1058 1.41592 25.7545C1.28236 25.4032 1.22109 25.0286 1.23581 24.653C1.26539 23.9517 1.55726 23.287 2.05362 22.7907C2.54998 22.2943 3.21463 22.0025 3.91596 21.9729C4.2915 21.9581 4.66615 22.0193 5.01747 22.1529C5.36878 22.2864 5.68951 22.4895 5.96044 22.75C6.23137 23.0104 6.44692 23.3229 6.59416 23.6687C6.74141 24.0145 6.81732 24.3865 6.81735 24.7623V27.0376C5.93716 27.3447 5.47463 27.5989 5.42689 27.6258L5.97318 28.5998C6.002 28.5838 8.92469 26.9958 14.6344 26.9958C20.3442 26.9958 23.2669 28.5838 23.2945 28.5992L23.842 27.6258C23.7943 27.5989 23.3317 27.3445 22.4515 27.0376V24.8175C22.4515 23.2732 23.6825 21.9962 25.1954 21.9709C25.564 21.9645 25.9303 22.0312 26.273 22.1671C26.6157 22.303 26.9281 22.5055 27.1921 22.7628C27.4562 23.0201 27.6667 23.3271 27.8114 23.6662C27.9562 24.0053 28.0323 24.3697 28.0355 24.7383C28.0387 25.107 27.9688 25.4726 27.8299 25.8142C27.691 26.1557 27.4858 26.4663 27.2262 26.7281C26.9666 26.9899 26.6577 27.1977 26.3174 27.3394C25.9771 27.4812 25.612 27.5542 25.2434 27.5541ZM4.5839 16.9452C4.58425 16.6492 4.70202 16.3653 4.91137 16.156C5.12072 15.9466 5.40456 15.8288 5.70063 15.8285H23.5683C23.8643 15.8288 24.1482 15.9466 24.3575 16.156C24.5669 16.3653 24.6846 16.6492 24.685 16.9452V19.737H25.8017V16.9452C25.8011 16.3531 25.5655 15.7854 25.1468 15.3667C24.7281 14.9479 24.1604 14.7124 23.5683 14.7118H5.70063C5.10848 14.7124 4.54078 14.9479 4.12207 15.3667C3.70336 15.7854 3.46784 16.3531 3.46717 16.9452V19.737H4.5839V16.9452Z" fill="white"/>
<path d="M11.2839 18.062H12.4006V19.1787H11.2839V18.062ZM14.0757 20.8538H15.1925V21.9705H14.0757V20.8538ZM8.4921 20.8538H9.60882V21.9705H8.4921V20.8538ZM11.2839 23.6456H12.4006V24.7623H11.2839V23.6456ZM16.8676 18.062H17.9843V19.1787H16.8676V18.062ZM19.6594 20.8538H20.7761V21.9705H19.6594V20.8538ZM16.8676 23.6456H17.9843V24.7623H16.8676V23.6456ZM31.385 0.752686H15.7508C15.1587 0.753351 14.591 0.988874 14.1723 1.40758C13.7536 1.82629 13.518 2.394 13.5174 2.98614V3.54451H14.6341V2.98614C14.6345 2.69007 14.7522 2.40623 14.9616 2.19688C15.1709 1.98753 15.4548 1.86976 15.7508 1.86941H23.0096V13.5951H24.1263V1.86941H31.385C31.6811 1.86976 31.9649 1.98753 32.1743 2.19688C32.3836 2.40623 32.5014 2.69007 32.5017 2.98614V30.9043C32.5014 31.2004 32.3836 31.4842 32.1743 31.6936C31.9649 31.903 31.6811 32.0207 31.385 32.0211H26.3597V33.1378H27.6898L28.6522 35.0626C28.6986 35.1554 28.7698 35.2333 28.858 35.2879C28.9462 35.3424 29.0479 35.3713 29.1516 35.3713H30.8267C30.9747 35.3713 31.1168 35.3124 31.2215 35.2077C31.3262 35.103 31.385 34.961 31.385 34.8129V33.1378C31.9772 33.1371 32.5449 32.9016 32.9636 32.4829C33.3823 32.0642 33.6178 31.4965 33.6185 30.9043V2.98614C33.6178 2.394 33.3823 1.82629 32.9636 1.40758C32.5449 0.988874 31.9772 0.753351 31.385 0.752686ZM30.2683 34.2545H29.4966L28.9383 33.1378H30.2683V34.2545Z" fill="white"/>
<path d="M4.02505 12.4784H9.05032V13.5951H10.1671V12.4784H15.1923C15.2696 12.4784 15.346 12.4623 15.4167 12.4313C15.4874 12.4003 15.5509 12.3549 15.6032 12.2981C15.6555 12.2412 15.6954 12.1742 15.7205 12.1011C15.7455 12.028 15.7552 11.9506 15.7487 11.8736L15.1904 5.17323C15.1787 5.03367 15.1151 4.90358 15.012 4.80875C14.9089 4.71392 14.774 4.66129 14.634 4.66128H10.1671V3.54456H9.05032V4.66128H4.58341C4.44336 4.66129 4.30843 4.71392 4.20537 4.80875C4.10231 4.90358 4.03864 5.03367 4.027 5.17323L3.46864 11.8736C3.46222 11.9506 3.47184 12.028 3.49688 12.1011C3.52193 12.1742 3.56186 12.2412 3.61416 12.2981C3.66645 12.3549 3.72997 12.4003 3.80069 12.4313C3.87142 12.4623 3.94781 12.4784 4.02505 12.4784ZM5.09718 5.77801H14.1202L14.5855 11.3617H4.63185L5.09718 5.77801Z" fill="white"/>
</svg>
