<svg width="38" height="38" viewBox="0 0 38 38" fill="none" xmlns="http://www.w3.org/2000/svg">
<g clip-path="url(#clip0_92_64)">
<path d="M36.4835 19.7108H35.8035V18.8942C35.8035 18.1733 35.217 17.5868 34.4961 17.5868H21.3387C20.6178 17.5868 20.0313 18.1733 20.0313 18.8942V19.7108H10.7789C10.637 19.7108 10.5008 19.7672 10.4005 19.8676C10.3001 19.9679 10.2437 20.1041 10.2437 20.2461C10.2437 20.388 10.3001 20.5242 10.4005 20.6245C10.5008 20.7249 10.637 20.7813 10.7789 20.7813H36.3936V21.9446H1.99438V20.7813H8.63792C8.77988 20.7813 8.91602 20.7249 9.0164 20.6245C9.11678 20.5242 9.17317 20.388 9.17317 20.2461C9.17317 20.1041 9.11678 19.9679 9.0164 19.8676C8.91602 19.7672 8.77988 19.7108 8.63792 19.7108H1.90453C1.36384 19.7108 0.923935 20.1507 0.923935 20.6914V35.8259C0.923935 36.6177 1.5681 37.2619 2.35992 37.2619H36.0282C36.82 37.2619 37.4641 36.6177 37.4641 35.8259V20.6914C37.4641 20.1507 37.0242 19.7108 36.4835 19.7108ZM21.1018 18.8942C21.1019 18.8314 21.1269 18.7712 21.1713 18.7268C21.2157 18.6824 21.2759 18.6574 21.3387 18.6573H34.4961C34.5589 18.6574 34.6191 18.6824 34.6635 18.7268C34.7079 18.7712 34.7329 18.8314 34.733 18.8942V19.7108H21.1018V18.8942ZM19.3343 23.0151V36.1914H11.3686V23.0151H19.3343ZM1.99438 35.8259V23.0151H10.298V36.1914H2.35992C2.26302 36.1913 2.1701 36.1527 2.10157 36.0842C2.03304 36.0157 1.99449 35.9228 1.99438 35.8259ZM36.0281 36.1914H20.4048V23.0151H36.3936V35.8259C36.3935 35.9228 36.3549 36.0157 36.2864 36.0842C36.2179 36.1527 36.125 36.1913 36.0281 36.1914ZM1.90453 12.5604H16.4293C16.9699 12.5604 17.4099 12.1205 17.4099 11.5798V1.8153C17.4099 1.27454 16.9699 0.834635 16.4293 0.834635H1.90453C1.36384 0.834635 0.923935 1.27454 0.923935 1.8153V11.5797C0.923935 12.1205 1.36384 12.5604 1.90453 12.5604ZM16.3393 11.4899H9.70208V1.90522H16.3393V11.4899ZM1.99438 1.90522H8.63157V11.4899H1.99438V1.90522ZM20.2268 12.5604H28.0859C28.2279 12.5604 28.364 12.504 28.4644 12.4036C28.5648 12.3033 28.6212 12.1671 28.6212 12.0251C28.6212 11.8832 28.5648 11.747 28.4644 11.6467C28.364 11.5463 28.2279 11.4899 28.0859 11.4899H20.3167V10.1125H34.733V11.4899H30.227C30.085 11.4899 29.9489 11.5463 29.8485 11.6467C29.7481 11.747 29.6917 11.8832 29.6917 12.0251C29.6917 12.1671 29.7481 12.3033 29.8485 12.4036C29.9489 12.504 30.085 12.5604 30.227 12.5604H34.8229C35.3636 12.5604 35.8035 12.1205 35.8035 11.5798V10.0226C35.8035 9.5003 35.3926 9.07324 34.8773 9.04476L32.2269 3.97617L32.1103 1.15736C32.1046 1.01936 32.0457 0.888902 31.9461 0.793271C31.8464 0.69764 31.7137 0.644237 31.5755 0.644226L23.5729 0.644226C23.5018 0.644226 23.4315 0.658367 23.366 0.685827C23.3005 0.713287 23.2411 0.753514 23.1912 0.804165C23.1414 0.854816 23.1022 0.914877 23.0758 0.980846C23.0495 1.04681 23.0365 1.11737 23.0377 1.1884L23.0844 3.99065L20.443 9.04191H20.2268C19.6861 9.04191 19.2462 9.48182 19.2462 10.0226V11.5797C19.2462 12.1205 19.6861 12.5604 20.2268 12.5604ZM31.062 1.71474L31.1392 3.58272H24.1483L24.1171 1.71474H31.062ZM23.9461 4.65323H31.3729L33.6678 9.04198H21.6511L23.9461 4.65323Z" fill="white"/>
<path d="M17.6786 26.7358C17.8206 26.7358 17.9567 26.6794 18.0571 26.579C18.1575 26.4786 18.2139 26.3425 18.2139 26.2005V24.9502C18.2139 24.8082 18.1575 24.6721 18.0571 24.5717C17.9567 24.4713 17.8206 24.4149 17.6786 24.4149C17.5366 24.4149 17.4005 24.4713 17.3001 24.5717C17.1997 24.6721 17.1434 24.8082 17.1434 24.9502V26.2005C17.1434 26.3425 17.1997 26.4786 17.3001 26.579C17.4005 26.6794 17.5366 26.7358 17.6786 26.7358ZM34.752 24.415C34.61 24.415 34.4738 24.4714 34.3735 24.5718C34.2731 24.6721 34.2167 24.8083 34.2167 24.9502V26.2006C34.2167 26.3426 34.2731 26.4787 34.3735 26.5791C34.4738 26.6795 34.61 26.7359 34.752 26.7359C34.8939 26.7359 35.0301 26.6795 35.1304 26.5791C35.2308 26.4787 35.2872 26.3426 35.2872 26.2006V24.9502C35.2872 24.8083 35.2308 24.6721 35.1304 24.5718C35.0301 24.4714 34.8939 24.415 34.752 24.415ZM8.72233 24.415C8.58037 24.415 8.44423 24.4714 8.34385 24.5718C8.24347 24.6721 8.18707 24.8083 8.18707 24.9502V26.2006C8.18707 26.3426 8.24347 26.4787 8.34385 26.5791C8.44423 26.6795 8.58037 26.7359 8.72233 26.7359C8.86429 26.7359 9.00044 26.6795 9.10082 26.5791C9.2012 26.4787 9.25759 26.3426 9.25759 26.2006V24.9502C9.25759 24.8083 9.2012 24.6721 9.10082 24.5718C9.00044 24.4714 8.86429 24.415 8.72233 24.415ZM7.05782 7.79169C6.91587 7.79169 6.77972 7.84808 6.67934 7.94846C6.57896 8.04884 6.52257 8.18499 6.52257 8.32694V9.57723C6.52257 9.71919 6.57896 9.85534 6.67934 9.95572C6.77972 10.0561 6.91587 10.1125 7.05782 10.1125C7.19978 10.1125 7.33593 10.0561 7.43631 9.95572C7.53669 9.85534 7.59308 9.71919 7.59308 9.57723V8.32694C7.59308 8.18499 7.53669 8.04884 7.43631 7.94846C7.33593 7.84808 7.19978 7.79169 7.05782 7.79169ZM11.2175 10.1126C11.3594 10.1126 11.4956 10.0562 11.596 9.95579C11.6963 9.85541 11.7527 9.71926 11.7527 9.5773V8.32702C11.7527 8.18506 11.6963 8.04891 11.596 7.94853C11.4956 7.84815 11.3594 7.79176 11.2175 7.79176C11.0755 7.79176 10.9394 7.84815 10.839 7.94853C10.7386 8.04891 10.6822 8.18506 10.6822 8.32702V9.5773C10.6822 9.71926 10.7386 9.85541 10.839 9.95579C10.9394 10.0562 11.0755 10.1126 11.2175 10.1126Z" fill="white"/>
</g>
<defs>
<clipPath id="clip0_92_64">
<rect width="36.6176" height="36.6176" fill="white" transform="translate(0.885742 0.644287)"/>
</clipPath>
</defs>
</svg>
