<svg width="23" height="33" viewBox="0 0 23 33" fill="none" xmlns="http://www.w3.org/2000/svg">
<path d="M12.2298 4.12602C12.2298 3.93263 12.153 3.74716 12.0163 3.61042C11.8795 3.47367 11.694 3.39685 11.5007 3.39685C7.48003 3.39685 4.20898 6.66789 4.20898 10.6885C4.20898 10.8819 4.28581 11.0674 4.42255 11.2041C4.5593 11.3409 4.74476 11.4177 4.93815 11.4177C5.13154 11.4177 5.317 11.3409 5.45375 11.2041C5.59049 11.0674 5.66732 10.8819 5.66732 10.6885C5.66732 7.47216 8.2843 4.85518 11.5007 4.85518C11.694 4.85518 11.8795 4.77836 12.0163 4.64162C12.153 4.50487 12.2298 4.3194 12.2298 4.12602Z" fill="white"/>
<path d="M10.2214 32.3886H12.7793C13.3592 32.3876 13.915 32.1568 14.325 31.7468C14.7351 31.3368 14.9658 30.7809 14.9668 30.2011V29.3997C15.3475 29.226 15.6705 28.9468 15.8973 28.5951C16.1241 28.2435 16.2453 27.8341 16.2465 27.4156V24.7031C16.3748 24.4246 16.4514 24.1184 16.4514 23.7917C16.4514 23.0509 16.6162 22.3334 16.9406 21.6574C17.2656 20.9831 17.7287 20.3847 18.2998 19.9009C21.0313 17.593 22.4626 14.0755 22.1279 10.488C21.6175 5.11044 17.1601 0.871066 11.7264 0.626066L11.5003 0.618774L11.2422 0.626795C5.84054 0.871066 1.38315 5.11044 0.872003 10.4895C0.538045 14.0748 1.9694 17.593 4.70086 19.9001C5.27185 20.3844 5.73488 20.983 6.06002 21.6574C6.3845 22.3334 6.54929 23.0509 6.54929 23.7917C6.54929 24.1176 6.62586 24.4246 6.75419 24.7031V27.4164C6.75419 28.2979 7.28065 29.0548 8.03388 29.4004V30.2025C8.03523 30.7821 8.26618 31.3376 8.67616 31.7473C9.08615 32.157 9.64177 32.3876 10.2214 32.3886ZM13.5085 30.2011C13.5085 30.6036 13.1811 30.9302 12.7793 30.9302H10.2214C9.81961 30.9302 9.49221 30.6028 9.49221 30.2011V29.6031H13.5085V30.2011ZM14.7881 27.4164C14.7881 27.8181 14.4615 28.1455 14.059 28.1455H8.94169C8.53919 28.1455 8.21252 27.8181 8.21252 27.4164V25.9085C8.38169 25.9508 8.55523 25.9792 8.73679 25.9792H14.2639C14.4454 25.9792 14.619 25.9508 14.7881 25.9085V27.4164ZM8.00763 23.7917C8.00842 22.8338 7.79202 21.8882 7.37471 21.026C6.95992 20.1667 6.36974 19.4039 5.64221 18.7867C3.27461 16.7873 2.03429 13.7365 2.32377 10.6266C2.76638 5.96794 6.62805 2.29513 11.2743 2.0844L11.5003 2.07711L11.6936 2.08367C16.3726 2.29513 20.2343 5.96794 20.6762 10.6251C20.9664 13.7365 19.7261 16.7873 17.3585 18.7867C16.6309 19.4039 16.0408 20.1667 15.626 21.026C15.2087 21.8882 14.9923 22.8338 14.993 23.7917C14.993 24.1935 14.6664 24.5209 14.2639 24.5209H8.73679C8.33429 24.5209 8.00763 24.1935 8.00763 23.7917Z" fill="white"/>
</svg>
