<svg width="88" height="84" viewBox="0 0 88 84" fill="none" xmlns="http://www.w3.org/2000/svg">
<path d="M23.5408 52.9777C24.3626 52.5039 24.6439 51.4516 24.1699 50.6299C23.6952 49.8089 22.6438 49.5268 21.8221 50.0008C21.0004 50.4756 20.7183 51.5276 21.193 52.3486C21.6669 53.1704 22.7191 53.4524 23.5408 52.9777Z" fill="#C8AE6C"/>
<path d="M16.4972 64.8405L25.1529 79.8332C27.0206 83.072 31.2221 84.271 34.5448 82.3503C37.8328 80.4502 38.9625 76.2494 37.0605 72.9591L31.9043 64.0267L36.3696 61.4486C37.1915 60.9734 37.4734 59.9227 36.9987 59.1008L34.7638 55.2296C35.0302 55.1781 36.7826 54.8343 67.6845 48.7723C71.5046 48.5648 73.7935 44.3867 71.8638 41.0465L66.1517 31.1531L69.802 25.6242C69.9779 25.3578 70.0762 25.0476 70.0858 24.7285C70.0955 24.4094 70.0161 24.094 69.8565 23.8174L66.419 17.8637C66.259 17.5875 66.0255 17.3612 65.7444 17.2101C65.4633 17.0589 65.1457 16.9889 64.8271 17.0077L58.2146 17.4044L51.8734 6.42041C50.9549 4.82936 49.3094 3.86583 47.4724 3.84297C47.4502 3.84229 47.4287 3.84229 47.4065 3.84229C45.6314 3.84229 44.0201 4.72589 43.0655 6.21966L20.6129 34.8222L6.01629 43.2493C0.275324 46.5627 -1.71361 53.928 1.61268 59.6845C4.65143 64.9481 11.0577 67.0187 16.4972 64.8407V64.8405ZM34.0843 74.6783C35.0336 76.3206 34.4717 78.4219 32.8247 79.3734C31.1724 80.3287 29.0683 79.7419 28.1297 78.1153L19.536 63.2285L25.4897 59.791C35.4358 77.0201 33.9245 74.4025 34.0843 74.6783ZM30.1855 61.0492L28.4668 58.0723L31.4437 56.3535L33.1624 59.3304L30.1855 61.0492ZM63.9731 20.5021L66.3484 24.6165L64.2302 27.8243L60.1361 20.7324L63.9731 20.5021ZM45.9403 8.10427C46.4016 7.34974 47.1333 7.27188 47.4301 7.27979C47.7235 7.28322 48.4546 7.37449 48.8957 8.13864L68.887 42.7653C69.5382 43.8926 68.7465 45.3099 67.4408 45.3422C67.2065 45.3473 67.0984 45.3898 66.4981 45.502L45.3514 8.87427C45.7952 8.30364 45.8523 8.24864 45.9403 8.10427ZM43.0641 11.7882L62.9324 46.2016L32.947 52.0828L23.8296 36.2911L43.0641 11.7882ZM4.58956 57.9655C3.83557 56.6621 3.43783 55.1831 3.43628 53.6773C3.43628 50.6119 5.0837 47.757 7.73487 46.2265L21.1312 38.4921L29.7249 53.3765L16.3288 61.1117C12.2246 63.4802 6.95886 62.0691 4.58973 57.9655H4.58956Z" fill="#C8AE6C"/>
<path d="M18.216 54.0673C17.7414 53.2456 16.6899 52.9636 15.8682 53.4383L12.8913 55.157C12.0708 55.6311 11.0175 55.3483 10.5435 54.528C10.0688 53.7062 9.01725 53.4242 8.19568 53.8989C7.37412 54.3736 7.0919 55.425 7.56662 56.2467C8.98115 58.6973 12.1368 59.5613 14.6101 58.1339L17.5869 56.4152C18.4087 55.9406 18.6907 54.8898 18.216 54.0673ZM85.4454 7.51877L75.868 12.8483C75.0389 13.3101 74.7402 14.3568 75.202 15.1859C75.6626 16.0144 76.7087 16.3146 77.5398 15.852L87.1164 10.5226C87.9464 10.0606 88.2444 9.01391 87.7824 8.18479C87.3213 7.35498 86.2745 7.05695 85.4454 7.51877ZM84.441 25.3199L77.8002 23.5408C76.8831 23.295 75.9406 23.8388 75.6948 24.7559C75.449 25.6731 75.9937 26.6151 76.9106 26.8607L83.552 28.64C84.4745 28.8876 85.4124 28.3351 85.6568 27.4248C85.9026 26.5077 85.3581 25.5651 84.441 25.3199ZM67.7531 1.27421L65.9718 7.91546C65.726 8.83276 66.2698 9.77463 67.187 10.0209C68.1034 10.266 69.0461 9.72359 69.2924 8.80577L71.0731 2.16452C71.3188 1.2474 70.7749 0.304835 69.8579 0.059054C68.9413 -0.186727 67.9987 0.357085 67.7529 1.27421H67.7531Z" fill="#C8AE6C"/>
</svg>
