<svg width="77" height="77" viewBox="0 0 77 77" fill="none" xmlns="http://www.w3.org/2000/svg">
<path d="M38.5004 14.2916C25.1512 14.2916 14.2921 25.1508 14.2921 38.5C14.2921 51.8491 25.1512 62.7083 38.5004 62.7083C51.8496 62.7083 62.7087 51.8491 62.7087 38.5C62.7087 25.1508 51.8496 14.2916 38.5004 14.2916ZM38.5004 59.25C27.0585 59.25 17.7504 49.9419 17.7504 38.5C17.7504 27.0581 27.0585 17.75 38.5004 17.75C49.9423 17.75 59.2504 27.0581 59.2504 38.5C59.2504 49.9419 49.9423 59.25 38.5004 59.25Z" fill="#C8AE6C"/>
<path d="M47.6525 30.3609L35.0417 42.9717L29.3458 37.2775C29.0216 36.9533 28.5818 36.7712 28.1233 36.7712C27.6648 36.7712 27.225 36.9533 26.9008 37.2775C26.5765 37.6018 26.3944 38.0415 26.3944 38.5001C26.3944 38.9586 26.5765 39.3984 26.9008 39.7226L33.8192 46.6393C34.1434 46.9634 34.5832 47.1455 35.0417 47.1455C35.5002 47.1455 35.9399 46.9634 36.2642 46.6393L50.0975 32.8059C50.4218 32.4817 50.6039 32.0419 50.6039 31.5834C50.6039 31.1249 50.4218 30.6851 50.0975 30.3609C49.7733 30.0366 49.3335 29.8545 48.875 29.8545C48.4165 29.8545 47.9767 30.0366 47.6525 30.3609Z" fill="#C8AE6C"/>
<path d="M72.8586 32.875C72.1461 32.3476 71.9248 31.3049 72.3969 30.5545C74.0863 27.8674 76.5399 22.2234 68.0912 20.1535C67.2301 19.9426 66.5921 19.0521 66.7753 18.1875C67.5863 14.3937 66.4503 8.88457 58.8143 10.2264C57.9445 10.3786 57.0194 9.78028 56.8482 8.9105C56.2758 6.00205 53.8101 0.110774 46.449 4.60315C45.6916 5.06484 44.4847 4.81411 44.1284 4.13973C42.9855 1.98 37.9795 -3 32.8716 4.13973C32.3563 4.8608 31.1718 5.04582 30.551 4.60142C27.1999 2.20134 21.7859 1.60132 20.1501 8.90705C19.9616 9.74569 19.0694 10.3889 18.1823 10.2212C15.2531 9.66442 8.82405 9.84771 10.2264 18.1823C10.3734 19.0555 9.78719 20.0187 8.91224 20.1501C5.50059 20.6602 0.240465 23.4009 4.60315 30.5493C5.06484 31.3049 4.93169 32.4704 4.14147 32.8698C1.11369 34.4002 -2.35329 39.8436 4.14147 44.1319C4.87982 44.6195 5.06484 45.6691 4.60315 46.4248C0.240465 53.5732 5.50059 56.3122 8.91224 56.824C9.78892 56.9554 10.3734 57.9186 10.2264 58.7918C8.82405 67.1264 15.2531 67.3097 18.1858 66.7511C19.0728 66.5817 19.9651 67.2267 20.1535 68.0653C21.7893 75.3728 27.2034 74.771 30.5545 72.3709C31.1753 71.9265 32.3597 72.1116 32.875 72.8326C37.983 79.9741 42.9889 74.9941 44.1319 72.8326C44.4881 72.16 45.6951 71.9075 46.4524 72.3692C53.8135 76.8616 56.2793 70.9703 56.8517 68.0618C57.0228 67.1921 57.9479 66.5938 58.8177 66.7459C66.4537 68.0878 67.5881 62.5787 66.7788 58.7849C66.5938 57.9203 67.2336 57.0298 68.0947 56.8188C76.5451 54.749 74.0914 49.105 72.4003 46.4179C71.9283 45.6674 72.1323 44.6022 72.8586 44.1008C75.1168 42.5393 80 38.1594 72.8586 32.875ZM70.3893 50.1045C70.9772 51.0503 70.6141 52.3506 69.2757 52.7916C66.8238 53.6008 62.3054 54.2666 63.5107 61.4236C63.7407 62.7844 63.0127 63.5989 61.453 63.4796C59.0805 63.298 54.1957 62.3383 52.8244 69.2463C52.5529 70.6106 51.2163 70.9063 50.1373 70.3616C45.4824 68.0117 43.6201 67.7108 39.9577 72.3865C39.2574 73.2805 37.798 73.2424 37.0475 72.3865C35.0797 70.1438 32.8508 66.6958 26.8662 70.3634C25.8252 71.0014 24.639 70.5086 24.1791 69.2498C22.9842 65.9713 22.6314 62.4766 15.5488 63.4847C14.4559 63.6404 13.2974 62.9003 13.4928 61.4288C13.8646 58.6137 14.2917 54.0936 7.7243 52.7968C6.71101 52.5962 5.91905 51.244 6.61072 50.1096C9.23386 45.8196 8.87074 43.1359 4.54782 39.911C4.06019 39.5479 3.26651 37.9864 4.58586 37.0423C8.79638 34.0301 9.23386 31.1545 6.61072 26.8627C5.91732 25.7284 6.71101 24.3744 7.7243 24.1756C14.2917 22.8787 13.8646 18.3587 13.4928 15.5436C13.2974 14.0721 14.4577 13.332 15.5488 13.4876C22.6314 14.494 22.9842 11.0011 24.1791 7.72257C24.6373 6.462 25.8252 5.97092 26.8662 6.60898C32.8525 10.2765 35.0814 6.82859 37.0475 4.58586C37.798 3.72992 39.2557 3.69188 39.9577 4.58586C43.6201 9.26153 45.4824 8.96065 50.1373 6.61071C51.2163 6.06603 52.5529 6.36171 52.8244 7.72603C54.1957 14.634 59.0805 13.6744 61.453 13.4928C63.0144 13.3735 63.7407 14.1879 63.5107 15.5488C62.3054 22.7075 66.8238 23.3715 69.2757 24.1808C70.6141 24.6217 70.9772 25.9238 70.3893 26.8679C66.5436 33.0445 70.6072 35.4999 72.4142 37.0492C73.1197 37.6544 73.526 39.0845 72.5767 39.8246C70.417 41.3186 66.5436 43.9279 70.3893 50.1045Z" fill="#C8AE6C"/>
</svg>
