<svg width="21" height="20" viewBox="0 0 21 20" fill="none" xmlns="http://www.w3.org/2000/svg">
<path d="M10.0278 0C7.30649 0 6.96429 0.0125 5.89508 0.06C4.82587 0.11 4.0976 0.2775 3.45958 0.525C2.79035 0.776024 2.18417 1.16978 1.68341 1.67875C1.17335 2.17837 0.778541 2.7828 0.526458 3.45C0.278271 4.085 0.109052 4.8125 0.0601667 5.875C0.0125347 6.94375 0 7.28375 0 10.0013C0 12.7163 0.0125347 13.0563 0.0601667 14.1225C0.110306 15.1875 0.278271 15.9137 0.526458 16.55C0.78342 17.2075 1.12562 17.765 1.68341 18.3212C2.23996 18.8775 2.799 19.22 3.45833 19.475C4.0976 19.7225 4.82462 19.8912 5.89257 19.94C6.96304 19.9875 7.30398 20 10.0278 20C12.7516 20 13.0913 19.9875 14.1617 19.94C15.2284 19.89 15.9592 19.7225 16.5972 19.475C17.266 19.2239 17.8718 18.8301 18.3721 18.3212C18.9299 17.765 19.2721 17.2075 19.5291 16.55C19.776 15.9137 19.9453 15.1875 19.9954 14.1225C20.043 13.0563 20.0556 12.7163 20.0556 10C20.0556 7.28375 20.043 6.94375 19.9954 5.87625C19.9453 4.8125 19.776 4.085 19.5291 3.45C19.2771 2.78278 18.8822 2.17834 18.3721 1.67875C17.8715 1.16959 17.2653 0.775807 16.596 0.525C15.9567 0.2775 15.2272 0.10875 14.1605 0.06C13.09 0.0125 12.7503 0 10.0253 0H10.029H10.0278ZM9.12904 1.8025H10.029C12.7064 1.8025 13.0236 1.81125 14.0803 1.86C15.058 1.90375 15.5894 2.0675 15.9429 2.20375C16.4105 2.385 16.7451 2.6025 17.0961 2.9525C17.4471 3.3025 17.6639 3.635 17.8457 4.1025C17.9836 4.45375 18.1465 4.98375 18.1904 5.95875C18.2393 7.0125 18.2493 7.32875 18.2493 9.9975C18.2493 12.6663 18.2393 12.9837 18.1904 14.0375C18.1465 15.0125 17.9823 15.5413 17.8457 15.8938C17.6849 16.3279 17.4283 16.7205 17.0949 17.0425C16.7439 17.3925 16.4105 17.6088 15.9417 17.79C15.5907 17.9275 15.0592 18.09 14.0803 18.135C13.0236 18.1825 12.7064 18.1938 10.029 18.1938C7.35162 18.1938 7.03323 18.1825 5.97656 18.135C4.99885 18.09 4.46863 17.9275 4.11515 17.79C3.67957 17.6299 3.28551 17.3745 2.96196 17.0425C2.62822 16.72 2.37122 16.3271 2.20987 15.8925C2.07324 15.5412 1.90904 15.0113 1.86517 14.0363C1.81753 12.9825 1.80751 12.6663 1.80751 9.995C1.80751 7.325 1.81753 7.01 1.86517 5.95625C1.91029 4.98125 2.07324 4.45125 2.21113 4.09875C2.39288 3.6325 2.61098 3.29875 2.96196 2.94875C3.31293 2.59875 3.64635 2.3825 4.11515 2.20125C4.46863 2.06375 4.99885 1.90125 5.97656 1.85625C6.90162 1.81375 7.26011 1.80125 9.12904 1.8V1.8025ZM15.3814 3.4625C15.2233 3.4625 15.0669 3.49354 14.9209 3.55384C14.7749 3.61415 14.6422 3.70254 14.5305 3.81397C14.4187 3.9254 14.3301 4.05769 14.2696 4.20328C14.2092 4.34887 14.178 4.50491 14.178 4.6625C14.178 4.82009 14.2092 4.97613 14.2696 5.12172C14.3301 5.26731 14.4187 5.3996 14.5305 5.51103C14.6422 5.62246 14.7749 5.71085 14.9209 5.77116C15.0669 5.83146 15.2233 5.8625 15.3814 5.8625C15.7005 5.8625 16.0066 5.73607 16.2322 5.51103C16.4579 5.28598 16.5847 4.98076 16.5847 4.6625C16.5847 4.34424 16.4579 4.03902 16.2322 3.81397C16.0066 3.58893 15.7005 3.4625 15.3814 3.4625ZM10.029 4.865C9.34598 4.85437 8.66763 4.97936 8.03348 5.23268C7.39932 5.486 6.82204 5.86259 6.33524 6.34053C5.84843 6.81847 5.46184 7.38821 5.19795 8.01657C4.93407 8.64494 4.79817 9.31938 4.79817 10.0006C4.79817 10.6819 4.93407 11.3563 5.19795 11.9847C5.46184 12.613 5.84843 13.1828 6.33524 13.6607C6.82204 14.1387 7.39932 14.5153 8.03348 14.7686C8.66763 15.0219 9.34598 15.1469 10.029 15.1363C11.381 15.1152 12.6704 14.5649 13.6189 13.6041C14.5675 12.6432 15.0992 11.349 15.0992 10.0006C15.0992 8.65228 14.5675 7.35802 13.6189 6.39719C12.6704 5.43636 11.381 4.88603 10.029 4.865ZM10.029 6.66625C10.9157 6.66625 11.766 7.01748 12.3929 7.64268C13.0198 8.26788 13.372 9.11583 13.372 10C13.372 10.8842 13.0198 11.7321 12.3929 12.3573C11.766 12.9825 10.9157 13.3337 10.029 13.3337C9.14241 13.3337 8.2921 12.9825 7.66517 12.3573C7.03823 11.7321 6.68602 10.8842 6.68602 10C6.68602 9.11583 7.03823 8.26788 7.66517 7.64268C8.2921 7.01748 9.14241 6.66625 10.029 6.66625Z" fill="#1BA6DF"/>
</svg>
