<svg width="21" height="15" viewBox="0 0 21 15" fill="none" xmlns="http://www.w3.org/2000/svg">
<path d="M20.815 1.17215L14.4462 7.5L20.815 13.8278C20.9301 13.5872 21 13.3212 21 13.0371V1.96289C21 1.67878 20.9301 1.41279 20.815 1.17215ZM19.1543 0.117188H1.8457C1.56159 0.117188 1.2956 0.187037 1.05496 0.302168L9.19505 8.40124C9.91479 9.12098 11.0852 9.12098 11.805 8.40124L19.945 0.302168C19.7044 0.187037 19.4384 0.117188 19.1543 0.117188ZM0.18498 1.17215C0.0698496 1.41279 0 1.67878 0 1.96289V13.0371C0 13.3212 0.0698496 13.5873 0.18498 13.8278L6.55385 7.5L0.18498 1.17215Z" fill="#6C6C6C"/>
<path d="M13.5762 8.36987L12.6749 9.27111C11.4757 10.4704 9.52428 10.4704 8.32502 9.27111L7.42383 8.36987L1.05496 14.6977C1.2956 14.8129 1.56159 14.8827 1.8457 14.8827H19.1543C19.4384 14.8827 19.7044 14.8129 19.945 14.6977L13.5762 8.36987Z" fill="#6C6C6C"/>
</svg>
