<svg width="64" height="77" viewBox="0 0 64 77" fill="none" xmlns="http://www.w3.org/2000/svg">
<path fill-rule="evenodd" clip-rule="evenodd" d="M63.625 18.7887C63.6246 17.1694 63.1548 15.585 62.2726 14.2273C61.3903 12.8696 60.1333 11.7967 58.6539 11.1386L35.2131 0.720827C34.1424 0.245556 32.9839 0 31.8125 0C30.6411 0 29.4826 0.245556 28.4119 0.720827L4.97112 11.1386C3.49167 11.7967 2.23473 12.8696 1.35245 14.2273C0.470169 15.585 0.0003951 17.1694 0 18.7887V44.5752C0 54.9126 5.71955 62.2663 12.3566 67.2743C18.8079 72.1399 26.1013 74.7602 29.4785 75.795L29.5053 75.8034C31.0122 76.2368 32.6108 76.2374 34.1181 75.805L34.1482 75.7967C37.5254 74.7602 44.8171 72.1416 51.2684 67.2743C57.9054 62.2663 63.625 54.9126 63.625 44.5752V18.7887ZM60.2763 18.7887V44.5752C60.2763 53.7188 55.1227 60.17 49.2508 64.6003C43.2031 69.1646 36.3617 71.6141 33.1821 72.5903C32.2894 72.8431 31.344 72.8431 30.4513 72.5903C27.265 71.6125 20.4236 69.1646 14.3742 64.6003C8.50231 60.17 3.34868 53.7188 3.34868 44.5752V18.7887C3.34888 17.8171 3.63086 16.8664 4.16043 16.0518C4.69001 15.2373 5.44446 14.5937 6.33236 14.1993L29.7732 3.78152C30.4151 3.49588 31.1099 3.34827 31.8125 3.34827C32.5151 3.34827 33.2099 3.49588 33.8518 3.78152L57.2926 14.1993C58.1805 14.5937 58.935 15.2373 59.4646 16.0518C59.9941 16.8664 60.2761 17.8171 60.2763 18.7887Z" fill="#C8AE6C"/>
<path fill-rule="evenodd" clip-rule="evenodd" d="M31.812 19.8334C21.7493 19.8334 13.5801 28.0025 13.5801 38.0636C13.5801 48.1264 21.7493 56.2955 31.812 56.2955C41.8748 56.2955 50.044 48.1264 50.044 38.0636C50.044 28.0025 41.8748 19.8334 31.812 19.8334ZM31.812 23.1821C40.0264 23.1821 46.6953 29.8493 46.6953 38.0636C46.6953 46.2779 40.0264 52.9468 31.812 52.9468C23.5977 52.9468 16.9288 46.2779 16.9288 38.0636C16.9288 29.8493 23.5977 23.1821 31.812 23.1821Z" fill="#C8AE6C"/>
<path fill-rule="evenodd" clip-rule="evenodd" d="M23.4485 39.2994L28.1836 44.0344C28.4976 44.3483 28.9233 44.5246 29.3673 44.5246C29.8113 44.5246 30.2371 44.3483 30.5511 44.0344L40.0212 34.5643C40.3262 34.2485 40.4949 33.8256 40.4911 33.3866C40.4873 32.9476 40.3112 32.5276 40.0008 32.2172C39.6903 31.9068 39.2704 31.7307 38.8314 31.7269C38.3924 31.7231 37.9694 31.8918 37.6536 32.1968L29.3673 40.4831L25.816 36.9319C25.5003 36.6269 25.0773 36.4581 24.6383 36.4619C24.1993 36.4657 23.7794 36.6418 23.4689 36.9522C23.1585 37.2627 22.9824 37.6826 22.9786 38.1216C22.9748 38.5606 23.1435 38.9836 23.4485 39.2994Z" fill="#C8AE6C"/>
</svg>
