<svg width="69" height="69" viewBox="0 0 69 69" fill="none" xmlns="http://www.w3.org/2000/svg">
<path d="M46.7424 20.9089C45.9985 20.9089 45.3947 21.5113 45.3947 22.2562C45.3947 23.0005 45.9985 23.6038 46.7424 23.6038C47.4877 23.6038 48.09 23.0005 48.09 22.2562C48.0902 22.0792 48.0554 21.9039 47.9877 21.7403C47.9201 21.5768 47.8208 21.4282 47.6956 21.303C47.5704 21.1779 47.4218 21.0787 47.2582 21.011C47.0947 20.9434 46.9194 20.9087 46.7424 20.9089ZM22.2561 45.3948C21.5106 45.3948 20.9084 45.9985 20.9084 46.7424C20.9083 46.9195 20.943 47.0948 21.0107 47.2584C21.0783 47.422 21.1776 47.5706 21.3028 47.6958C21.4279 47.821 21.5766 47.9202 21.7402 47.9879C21.9038 48.0555 22.0791 48.0903 22.2561 48.0901C23 48.0901 23.6038 47.4878 23.6038 46.7424C23.6038 45.9985 23 45.3948 22.2561 45.3948Z" fill="#C8AE6C"/>
<path d="M67.3234 8.29097C67.0996 8.23886 66.8663 8.24488 66.6455 8.30846C66.4247 8.37203 66.2238 8.49104 66.062 8.65416L60.475 14.2853H57.7966L54.848 11.2305V8.51468L60.3551 2.92554C60.5155 2.76278 60.6318 2.5619 60.6931 2.34179C60.7544 2.12169 60.7587 1.8896 60.7056 1.66737C60.6527 1.44518 60.5442 1.2401 60.3902 1.07139C60.2362 0.902692 60.0419 0.775916 59.8255 0.702985C58.442 0.236561 56.9943 0.000181913 55.5219 0.000181913C51.1325 0.000181913 47.1448 2.047 44.5812 5.6156C42.1817 8.95631 41.4421 13.0504 42.5017 16.9685L32.5749 26.8954L16.0366 10.3192V7.06595C16.0366 6.83322 15.9764 6.60446 15.8617 6.40194C15.747 6.19942 15.5819 6.03005 15.3823 5.91033L5.85341 0.192223C5.59575 0.0374605 5.29371 -0.0266471 4.9954 0.010108C4.69708 0.0468631 4.41964 0.182368 4.20725 0.395046L0.395942 4.20582C0.183533 4.41848 0.0482331 4.696 0.0115134 4.99432C-0.0252064 5.29265 0.0387573 5.59469 0.193254 5.85252L5.91015 15.3814C6.02983 15.5809 6.19909 15.7459 6.40148 15.8606C6.60387 15.9753 6.83248 16.0356 7.06509 16.0357L10.3175 16.0368L26.8573 32.6129L16.9684 42.5019C13.0502 41.4427 8.95397 42.1835 5.61164 44.5845C2.04534 47.1466 0 51.1333 0 55.5226C0 56.9945 0.236379 58.4427 0.702803 59.8257C0.776163 60.0434 0.903981 60.2388 1.07411 60.3932C1.24424 60.5477 1.45104 60.656 1.67485 60.7081C1.89866 60.7601 2.13205 60.754 2.35286 60.6904C2.57366 60.6268 2.77454 60.5079 2.93641 60.3448L8.52285 54.714H11.2161L14.2848 57.7826V60.4758L8.65384 66.0623C8.49076 66.2242 8.37177 66.4251 8.30818 66.6459C8.24459 66.8667 8.2385 67.1001 8.2905 67.3239C8.34251 67.5477 8.45087 67.7545 8.6053 67.9246C8.75972 68.0947 8.95509 68.2226 9.17283 68.2959C10.5558 68.7624 12.004 68.9988 13.4759 68.9988C17.8652 68.9988 21.8515 66.953 24.414 63.3866C26.8151 60.0442 27.5558 55.9486 26.4966 52.0304L34.4388 44.0882L36.2582 46.0645L35.4233 46.8988C34.8968 47.4252 34.8968 48.2785 35.4233 48.805C35.9497 49.3309 36.8025 49.3309 37.3294 48.805L38.0855 48.049L55.1556 66.5908C55.1681 66.6045 55.1812 66.6177 55.1945 66.6308C58.353 69.7893 63.4705 69.7904 66.6306 66.6302C69.7818 63.4775 69.7818 58.3475 66.6306 55.1947C66.6169 55.181 66.6027 55.1677 66.5884 55.1547L48.0177 38.1173L48.7652 37.3698C49.2916 36.8439 49.2916 35.9906 48.7652 35.4642C48.2388 34.9378 47.3859 34.9377 46.859 35.4642L46.0299 36.2938L44.0499 34.4765L52.0306 26.4958C53.1694 26.7999 54.3432 26.9535 55.5219 26.9528C62.9528 26.9528 68.9979 20.9072 68.9979 13.4768C68.9979 12.0043 68.7615 10.5567 68.2952 9.17315C68.222 8.9554 68.0942 8.76003 67.9241 8.60562C67.754 8.4512 67.5472 8.34288 67.3234 8.29097ZM11.8304 13.7374C11.5777 13.484 11.235 13.3552 10.8771 13.3552L7.82908 13.3541L3.04597 5.36817L5.36907 3.04508L13.3413 7.82926V10.8771C13.3413 11.234 13.4829 11.5763 13.7351 11.8288L30.6692 28.8015L28.763 30.7071L11.8304 13.7374ZM46.1098 40.0251L64.7439 57.1198C66.8253 59.2235 66.819 62.6295 64.7243 64.7251C62.625 66.8244 59.2264 66.8308 57.1186 64.7435L39.9928 46.1413L46.1098 40.0251ZM44.122 38.201L38.1657 44.1564L36.3463 42.1802L42.1423 36.3838L44.122 38.201ZM55.5219 24.2575C54.3508 24.2587 53.1875 24.069 52.0775 23.6958C51.8396 23.616 51.5842 23.604 51.3399 23.6613C51.0957 23.7186 50.8722 23.8428 50.6945 24.02C43.9383 30.7762 29.3805 45.3336 24.0198 50.6947C23.8422 50.8722 23.7178 51.0958 23.6605 51.3403C23.6032 51.5847 23.6154 51.8403 23.6956 52.0782C24.8159 55.4047 24.2799 58.9528 22.2248 61.814C20.1754 64.6667 16.9863 66.3033 13.476 66.3033C13.0817 66.3033 12.6895 66.2817 12.301 66.2402L16.5814 61.993C16.7077 61.8677 16.8079 61.7187 16.8763 61.5545C16.9447 61.3903 16.9799 61.2142 16.9799 61.0364V57.224C16.9799 56.8666 16.8378 56.5239 16.5851 56.2712L12.727 52.413C12.4743 52.1602 12.1316 52.0182 11.7742 52.0181H7.96169C7.78378 52.0182 7.60764 52.0534 7.44341 52.1218C7.27917 52.1902 7.13008 52.2904 7.00472 52.4166L2.75798 56.6971C2.71577 56.3068 2.69468 55.9146 2.69478 55.522C2.69478 52.0114 4.33083 48.8228 7.18423 46.7733C10.0448 44.7181 13.5934 44.1818 16.9205 45.3025C17.1583 45.3827 17.4138 45.3948 17.6581 45.3375C17.9025 45.2802 18.1259 45.1558 18.3033 44.9782C18.3776 44.9045 44.9591 18.3225 44.9781 18.3035C45.1555 18.1261 45.2799 17.9026 45.3372 17.6583C45.3945 17.414 45.3824 17.1585 45.3023 16.9207C44.1816 13.5941 44.7165 10.0471 46.7699 7.18791C48.8212 4.33277 52.0108 2.6955 55.5215 2.6955C55.9279 2.6955 56.3317 2.71814 56.7316 2.76234L52.5404 7.01636C52.292 7.26837 52.1528 7.60802 52.1529 7.96187V11.7744C52.1527 12.1236 52.2883 12.4591 52.5309 12.7102L56.2543 16.5686C56.38 16.6988 56.5306 16.8024 56.6972 16.8731C56.8638 16.9438 57.043 16.9802 57.2239 16.9801H61.0365C61.2143 16.9801 61.3904 16.9449 61.5545 16.8765C61.7187 16.8081 61.8677 16.7079 61.9929 16.5816L66.2396 12.3017C66.2817 12.6903 66.3027 13.0824 66.3027 13.4768C66.3027 19.4213 61.4665 24.2575 55.522 24.2575H55.5219Z" fill="#C8AE6C"/>
<path d="M41.9773 25.1144L25.1132 41.9786C24.5873 42.5046 24.5873 43.3579 25.1132 43.8842C25.6396 44.4107 26.493 44.4107 27.0194 43.8842L43.8835 27.0202C44.4099 26.4943 44.4099 25.641 43.8835 25.1146C43.3572 24.5882 42.5038 24.588 41.9773 25.1146V25.1144ZM59.0072 60.9143C59.5338 61.4392 60.3871 61.4392 60.9135 60.9112C61.4388 60.3842 61.4373 59.5308 60.9104 59.0055L48.763 46.897C48.2361 46.3717 47.3822 46.3733 46.8574 46.9003C46.3314 47.4277 46.3331 48.2805 46.86 48.8058L59.0072 60.9143Z" fill="#C8AE6C"/>
</svg>
