<svg width="19" height="21" viewBox="0 0 19 21" fill="none" xmlns="http://www.w3.org/2000/svg">
<path d="M18.045 5.12982C16.874 5.12982 15.7935 4.74188 14.9258 4.08743C13.9307 3.33719 13.2158 2.23668 12.9633 0.968254C12.9 0.649319 12.8667 0.325148 12.8639 0H9.5187V9.1407L9.51469 14.1475C9.51469 15.486 8.64302 16.621 7.43471 17.0202C7.07277 17.1399 6.69157 17.1904 6.31096 17.1693C5.80759 17.1416 5.33589 16.9897 4.92591 16.7445C4.05343 16.2227 3.4619 15.276 3.44587 14.1932C3.42062 12.5007 4.78884 11.1209 6.48008 11.1209C6.81392 11.1209 7.13453 11.1754 7.43471 11.2744V7.87788C7.1181 7.83099 6.79589 7.80655 6.47006 7.80655C4.61892 7.80655 2.8876 8.57602 1.65003 9.96227C0.714643 11.0099 0.153569 12.3464 0.0670028 13.7479C-0.0464143 15.589 0.627275 17.3392 1.93378 18.6305C2.12574 18.82 2.32733 18.996 2.53813 19.1583C3.65828 20.0203 5.0277 20.4876 6.47006 20.4876C6.79589 20.4876 7.1181 20.4636 7.43471 20.4167C8.78209 20.2171 10.0253 19.6003 11.0063 18.6305C12.2119 17.439 12.8779 15.8572 12.8851 14.1735L12.8679 6.69682C13.4444 7.14146 14.0759 7.50974 14.7467 7.79252C15.7963 8.23537 16.9092 8.4598 18.0546 8.4594V5.12902C18.0554 5.12982 18.0458 5.12982 18.045 5.12982Z" fill="#6C6C6C"/>
</svg>
