<svg width="20" height="23" viewBox="0 0 20 23" fill="none" xmlns="http://www.w3.org/2000/svg">
<path d="M19.9726 5.55804C18.7038 5.55804 17.5331 5.13772 16.593 4.42863C15.5149 3.61577 14.7402 2.42339 14.4666 1.04908C14.398 0.703522 14.362 0.352291 14.359 0H10.7345V9.90374L10.7302 15.3285C10.7302 16.7788 9.78573 18.0085 8.47655 18.441C8.0844 18.5706 7.67138 18.6254 7.25899 18.6025C6.71361 18.5725 6.20253 18.408 5.75832 18.1422C4.81302 17.5769 4.17211 16.5512 4.15474 15.378C4.12738 13.5443 5.60982 12.0492 7.44223 12.0492C7.80394 12.0492 8.15132 12.1083 8.47655 12.2155V8.5355C8.13352 8.4847 7.7844 8.45821 7.43138 8.45821C5.42571 8.45821 3.54987 9.29192 2.20899 10.7939C1.19552 11.9289 0.587604 13.3771 0.493812 14.8956C0.370927 16.8904 1.10085 18.7866 2.51642 20.1857C2.72441 20.3911 2.94282 20.5817 3.17123 20.7576C4.38488 21.6916 5.86861 22.1979 7.43138 22.1979C7.7844 22.1979 8.13352 22.1718 8.47655 22.121C9.93641 21.9048 11.2834 21.2365 12.3463 20.1857C13.6525 18.8947 14.3742 17.1809 14.382 15.3567L14.3633 7.25585C14.9879 7.7376 15.6721 8.13663 16.3989 8.44301C17.5362 8.92283 18.742 9.16599 19.983 9.16556V5.55717C19.9839 5.55804 19.9734 5.55804 19.9726 5.55804Z" fill="#1BA6DF"/>
</svg>
