<svg width="23" height="16" viewBox="0 0 23 16" fill="none" xmlns="http://www.w3.org/2000/svg">
<path d="M21.9999 2.45485C21.7417 1.49492 20.9848 0.738237 20.025 0.479753C18.2716 -3.33889e-08 11.2579 0 11.2579 0C11.2579 0 4.24436 0 2.49095 0.461582C1.54961 0.719786 0.774334 1.4951 0.516129 2.45485C0.0546875 4.20812 0.0546875 7.84423 0.0546875 7.84423C0.0546875 7.84423 0.0546875 11.4986 0.516129 13.2335C0.774579 14.1933 1.53116 14.9501 2.49109 15.2085C4.26281 15.6884 11.2581 15.6884 11.2581 15.6884C11.2581 15.6884 18.2716 15.6884 20.025 15.2268C20.985 14.9685 21.7417 14.2118 22.0001 13.252C22.4614 11.4986 22.4614 7.86265 22.4614 7.86265C22.4614 7.86265 22.4799 4.20808 21.9999 2.45485ZM9.0248 11.2033V4.48502L14.8571 7.84416L9.0248 11.2033Z" fill="#6C6C6C"/>
</svg>
