<svg width="23" height="16" viewBox="0 0 23 16" fill="none" xmlns="http://www.w3.org/2000/svg">
<path d="M21.9452 2.6526C21.687 1.69268 20.9301 0.935991 19.9704 0.677506C18.2169 0.197754 11.2032 0.197754 11.2032 0.197754C11.2032 0.197754 4.18967 0.197754 2.43626 0.659336C1.49492 0.91754 0.719646 1.69285 0.461442 2.6526C0 4.40587 0 8.04199 0 8.04199C0 8.04199 0 11.6964 0.461442 13.4313C0.719891 14.3911 1.47647 15.1478 2.4364 15.4063C4.20812 15.8861 11.2034 15.8861 11.2034 15.8861C11.2034 15.8861 18.2169 15.8861 19.9704 15.4246C20.9303 15.1662 21.687 14.4095 21.9455 13.4497C22.4068 11.6963 22.4068 8.0604 22.4068 8.0604C22.4068 8.0604 22.4252 4.40584 21.9452 2.6526ZM8.97011 11.4011V4.68277L14.8024 8.04192L8.97011 11.4011Z" fill="#1BA6DF"/>
</svg>
